<svg xmlns="http://www.w3.org/2000/svg" height="48" width="48"><path d="M21.15 31.55 35 17.7 32.85 15.55 21.15 27.25 15.1 21.2 13 23.3ZM9 42Q7.75 42 6.875 41.125Q6 40.25 6 39V9Q6 7.75 6.875 6.875Q7.75 6 9 6H19.25Q19.5 4.25 20.85 3.125Q22.2 2 24 2Q25.8 2 27.15 3.125Q28.5 4.25 28.75 6H39Q40.25 6 41.125 6.875Q42 7.75 42 9V39Q42 40.25 41.125 41.125Q40.25 42 39 42ZM24 8.15Q24.7 8.15 25.225 7.625Q25.75 7.1 25.75 6.4Q25.75 5.7 25.225 5.175Q24.7 4.65 24 4.65Q23.3 4.65 22.775 5.175Q22.25 5.7 22.25 6.4Q22.25 7.1 22.775 7.625Q23.3 8.15 24 8.15Z" fill="#6fbc35" /></svg>